<?xml version="1.0" encoding="utf-8"?>
<!-- Generator: Adobe Illustrator 25.0.0, SVG Export Plug-In . SVG Version: 6.00 Build 0)  -->
<svg version="1.1" id="Calque_1" xmlns="http://www.w3.org/2000/svg" xmlns:xlink="http://www.w3.org/1999/xlink" x="0px" y="0px"
	 viewBox="0 0 300 100" enable-background="new 0 0 300 100" xml:space="preserve">
<g>
	<path fill="#FFFFFF" d="M98.5,68.11c0,11.78,8.61,19.48,18.35,19.48c7.48,0,13.14-4.42,16.08-10.53l3.85,2.27
		c-2.72,5.21-8.83,12.57-20.27,12.57c-14.38,0-22.77-10.65-22.77-24.13c0-16.08,11.1-24.35,22.43-24.35
		c12.46,0,21.86,9.97,21.86,24.69H98.5z M133.28,63.8c-1.13-9.17-7.93-16.08-17.1-16.08c-9.4,0-16.08,7.14-17.33,16.08H133.28z"/>
	<path fill="#FFFFFF" d="M150.26,8.08v56.18l19.03-19.82h5.89L155.7,64.48l25.83,26.16h-6.12l-22.77-22.88l-2.38,2.38v20.5h-4.53
		V8.08H150.26z"/>
	<path fill="#FFFFFF" d="M220.15,44.43h4.53v46.21h-4.53v-8.27c-4.64,7.14-12.01,9.51-18.01,9.51c-12.12,0-22.54-9.17-22.54-24.35
		c0-14.27,9.06-24.13,22.54-24.13c7.25,0,13.59,2.83,18.01,9.06V44.43z M184.36,67.2c0,10.42,6.46,20.39,18.12,20.39
		c11.55,0,17.9-9.74,17.9-20.39c0-13.7-10.08-19.48-18.01-19.48C193.19,47.72,184.36,54.63,184.36,67.2z"/>
	<path fill="#FFFFFF" d="M235.32,44.43h4.53v6c1.7-3.96,5.21-7.02,10.19-7.02c1.25,0,3.17,0.23,4.87,1.13l-2.26,4.08
		c-0.45-0.34-1.36-0.91-3.4-0.91c-9.29,0-9.4,12.35-9.4,18.12v24.81h-4.53V44.43z"/>
	<path fill="#FFFFFF" d="M295.47,44.43H300v46.21h-4.53v-8.27c-4.64,7.14-12.01,9.51-18.01,9.51c-12.12,0-22.54-9.17-22.54-24.35
		c0-14.27,9.06-24.13,22.54-24.13c7.25,0,13.59,2.83,18.01,9.06V44.43z M259.68,67.2c0,10.42,6.46,20.39,18.12,20.39
		c11.55,0,17.9-9.74,17.9-20.39c0-13.7-10.08-19.48-18.01-19.48C268.51,47.72,259.68,54.63,259.68,67.2z"/>
</g>
<g>
	<g>
		<g>
			<g>
				<g>
					<g>
						<path fill="#D6D6D6" d="M48.24,53.38c-6.23,3.69-16.64,2.3-25.66-3.98C11.63,41.78,6.88,29.84,11.97,22.74
							c0.98-1.37,2.26-2.46,3.75-3.27c0.96,5.88,4.06,12.69,9.08,18.99C31.97,47.47,41.1,53,48.24,53.38z"/>
					</g>
				</g>
			</g>
		</g>
		<g>
			<g>
				<g>
					<g>
						<path fill="#D6D6D6" d="M44.86,55.35c-4.63,5.56-14.9,7.75-25.51,4.86C6.48,56.71-2,47.06,0.41,38.66
							c0.46-1.62,1.3-3.08,2.44-4.34c2.88,5.22,8.09,10.58,14.93,14.84C27.55,55.24,38,57.38,44.86,55.35z"/>
					</g>
				</g>
			</g>
		</g>
		<g>
			<g>
				<g>
					<g>
						<path fill="#D6D6D6" d="M50.12,53.04c-0.69,7.2-7.95,14.8-18.34,18.38c-12.61,4.35-25.04,1.15-27.78-7.15
							c-0.53-1.6-0.66-3.27-0.43-4.96c5.32,2.69,12.64,4.2,20.69,3.86C35.76,62.69,45.61,58.59,50.12,53.04z"/>
					</g>
				</g>
			</g>
		</g>
		<g>
			<g>
				<g>
					<g>
						<path fill="#FFFFFF" d="M49.83,54.02c-6.62,3.33-17.06,1.11-25.69-6.03c-10.47-8.67-14.31-21.31-8.58-28.24
							c1.11-1.34,2.49-2.36,4.07-3.09c0.49,6.13,3.08,13.37,7.65,20.23C33.82,46.71,42.62,53.09,49.83,54.02z"/>
					</g>
				</g>
			</g>
		</g>
		<g>
			<g>
				<g>
					<g>
						<path fill="#FFFFFF" d="M46.09,54.99c-5.12,5.35-15.7,6.78-26.23,2.94C7.09,53.29-0.77,42.67,2.3,34.22
							c0.59-1.63,1.55-3.06,2.8-4.28c2.52,5.61,7.39,11.55,14,16.49C28.56,53.48,38.99,56.54,46.09,54.99z"/>
					</g>
				</g>
			</g>
		</g>
		<g>
			<g>
				<g>
					<path fill="#FFFFFF" d="M50.64,52.19c-1.21,7.3-9.16,14.44-20.02,17.2c-13.17,3.35-25.65-1-27.87-9.72
						c-0.43-1.68-0.44-3.4-0.09-5.11c5.24,3.22,12.61,5.39,20.85,5.74C35.3,60.81,45.64,57.46,50.64,52.19z"/>
				</g>
			</g>
		</g>
	</g>
	<g>
		<path fill="#FFFFFF" d="M68.83,55.45c-0.02,1.91-0.21,3.82-0.56,5.68c-1.4,7.37-5.4,14.1-11.34,18.84v-0.01
			c-0.22,0.22-0.45,0.43-0.68,0.64c-2.02,1.5-4.24,2.77-6.64,3.77c-0.08-0.07-0.18-0.13-0.27-0.19c-0.16-0.1-0.34-0.2-0.52-0.29
			c-1.13-0.55-2.59-0.79-4.2-0.67c-1.16,0.09-2.4,0.36-3.65,0.82c-0.07,0.02-0.16,0.05-0.22,0.08c-0.26,0.1-0.52,0.2-0.79,0.32
			c-0.29,0.13-0.59,0.27-0.87,0.42c-0.23,0.12-0.46,0.25-0.69,0.38c0.05-0.03,0.1-0.06,0.16-0.08c0.28-0.12,0.55-0.23,0.82-0.34
			c0.07-0.03,0.16-0.06,0.24-0.09c1.32-0.49,2.62-0.78,3.84-0.88c1.69-0.13,3.22,0.1,4.4,0.67c0.19,0.09,0.37,0.19,0.55,0.3
			c0.01,0.01,0.02,0.01,0.03,0.02c-0.37,0.13-0.76,0.27-1.14,0.4c-1.34,0.45-2.68,0.79-4.04,1.05c-2.37,0.45-4.75,0.63-7.09,0.54
			c-0.16-0.01-0.33-0.01-0.49-0.02h-0.01c-5.53-0.3-10.84-2.03-15.43-4.97c-2.44-1.56-4.69-3.46-6.64-5.65
			c0.3,0.05,0.6,0.1,0.9,0.14c0.06,0,0.12-0.01,0.18-0.01c-0.27-0.04-0.55-0.09-0.82-0.13h-0.01c0-0.01-0.01-0.01-0.01-0.01
			c1.63-0.13,3.31-0.46,4.97-1.01c1.22-0.38,2.43-0.9,3.61-1.52c0.37-0.19,0.74-0.4,1.09-0.6c0.37-0.22,0.74-0.46,1.1-0.69
			c2.59-1.71,4.7-3.86,6.19-6.15c0.99-1.53,1.7-3.12,2.12-4.73c0.05-0.18,0.1-0.37,0.13-0.55c0.13-0.31,0.26-0.6,0.4-0.87
			c0.11-0.21,0.23-0.43,0.34-0.63c0.29-0.51,0.62-1,0.96-1.5c1.36-1.91,3.17-3.67,5.32-5.23l0.61-0.43
			c-0.02,0.1-0.05,0.19-0.09,0.28c0.01,0.02,0.01,0.02,0.01,0.04c0.02,0.02,0.04,0.04,0.05,0.08c0.01,0.02,0.03,0.06,0.05,0.09
			c0.14-0.27,0.29-0.54,0.45-0.81c0.01-0.03,0.04-0.07,0.06-0.1c0.07-0.14,0.16-0.28,0.24-0.41c1.32-0.84,2.76-1.61,4.28-2.3
			l0.08-0.29c1.41-0.65,2.9-1.22,4.46-1.72c0.28-0.1,0.55-0.19,0.84-0.28c0.13-0.04,0.26-0.08,0.4-0.12c0.9-0.26,1.82-0.5,2.77-0.7
			c0.13,0.09,0.26,0.19,0.4,0.29c0.07,0.06,0.15,0.12,0.24,0.17c0.21,0.14,0.42,0.28,0.64,0.41v0.01c0,0,0.01,0,0.01,0
			c0,0,0.01,0,0.01,0.01c0,0,0.01,0,0.01,0.01c0.09,0.05,0.2,0.12,0.3,0.18c0.1,0.05,0.19,0.1,0.3,0.15
			c0.04,0.03,0.09,0.05,0.13,0.08c0.07,0.03,0.14,0.07,0.22,0.1c-0.01-0.01-0.03-0.02-0.04-0.03c0.41,0.21,0.83,0.38,1.26,0.54
			c0.6,0.2,1.2,0.37,1.83,0.48c0.69,0.13,1.41,0.19,2.14,0.19c0.82,0,1.64-0.08,2.42-0.25c0.22-0.04,0.42-0.1,0.63-0.16
			c0.1-0.01,0.19-0.04,0.29-0.07c0.93-0.26,1.81-0.64,2.64-1.12c0.24,0.88,0.43,1.76,0.58,2.65h-0.01c0.28,1.5,0.43,3,0.46,4.48
			C68.83,54.61,68.84,55.03,68.83,55.45z"/>
	</g>
	<g>
		<g>
			<g>
				<path fill="#D1D1D1" d="M77.7,46.27c-0.04,0.06-0.08,0.11-0.13,0.17v0.01c-0.07,0.03-0.13,0.07-0.2,0.1
					C77.48,46.46,77.59,46.36,77.7,46.27z"/>
			</g>
		</g>
		<g>
			<g>
				<path fill="#D1D1D1" d="M77.7,46.27c-0.04,0.06-0.08,0.11-0.13,0.17v0.01c-0.07,0.03-0.13,0.07-0.2,0.1
					C77.48,46.46,77.59,46.36,77.7,46.27z"/>
			</g>
		</g>
		<g>
			<g>
				<path fill="#D1D1D1" d="M82.84,72.68c-0.1,0.13-0.2,0.27-0.3,0.42c-0.03-0.03-0.05-0.06-0.08-0.09
					C82.59,72.89,82.71,72.77,82.84,72.68z"/>
			</g>
		</g>
		<g>
			<path fill="#FFFFFF" d="M66.65,25.17c-0.89-0.1-1.81-0.16-2.75-0.2c-0.62-0.12-1.26-0.19-1.92-0.21h-0.62
				c-0.39,0-0.8,0.04-1.19,0.09c-0.24,0.03-0.46,0.06-0.7,0.1c-0.04,0.01-0.09,0.01-0.13,0.03c-0.17,0.03-0.35,0.07-0.53,0.11
				c-0.28,0.07-0.56,0.15-0.83,0.24c-1.82,0.59-3.47,1.6-4.83,3.01c-0.75,0.76-1.38,1.6-1.88,2.51c-0.98,1.75-1.51,3.73-1.51,5.79
				c0,1.13,0.16,2.24,0.48,3.31c0.16,0.53,0.34,1.05,0.57,1.55c0.01,0.04,0.03,0.05,0.03,0.08c0.01,0.01,0.02,0.04,0.03,0.05
				c0.01,0.04,0.04,0.09,0.06,0.13c0.07,0.15,0.13,0.28,0.22,0.42c0.12,0.23,0.25,0.45,0.39,0.68c0.72,1.17,1.64,2.2,2.72,3.07
				c0.13,0.1,0.26,0.19,0.4,0.29c0.07,0.07,0.15,0.12,0.23,0.17c0.21,0.15,0.42,0.28,0.64,0.42h0.01c0,0,0,0.01,0.01,0.01
				c0.01,0,0.01,0,0.01,0.01c0.05,0.02,0.1,0.06,0.15,0.08c-1.03,0.34-2.06,0.82-3.06,1.46c-2.56,1.63-4.46,3.95-5.53,6.44
				c0.48-2.22,1.38-4.45,2.69-6.47c0.16-0.25,0.33-0.5,0.51-0.73c-0.58,0.01-1.18,0.08-1.79,0.22c-0.28,0.19-0.56,0.39-0.82,0.59
				c-2.08,1.65-3.61,3.81-4.45,6.16c0.28-1.73,0.77-3.47,1.5-5.11c-1.07,0.71-2.1,1.61-3.04,2.7c-0.97,1.13-1.75,2.35-2.34,3.61
				c-0.61,1.29-1.01,2.63-1.21,3.93c-0.07-1.51,0.07-3.11,0.42-4.71c0.13-0.65,0.31-1.3,0.52-1.94c0.05-0.16,0.11-0.33,0.17-0.49
				c0.1-0.27,0.19-0.53,0.31-0.79c0-0.01,0-0.01,0.01-0.02c-0.01,0.01-0.01,0.01-0.02,0.02c-0.57,0.55-1.1,1.17-1.6,1.83
				c-0.13,0.1-0.25,0.21-0.38,0.33c0.03,0.03,0.05,0.06,0.08,0.09c-0.51,0.73-0.98,1.52-1.4,2.37c-1.53,3.14-2.1,6.51-1.77,9.51
				c-0.69-2.25-1.03-4.75-0.92-7.32c-0.1,0.16-0.2,0.32-0.3,0.48c-0.12,0.2-0.23,0.42-0.34,0.62c-0.14,0.28-0.28,0.58-0.41,0.88
				c-0.04,0.18-0.08,0.37-0.13,0.56c-0.42,1.61-1.13,3.21-2.14,4.74c-0.15-0.25-0.29-0.5-0.43-0.76c-0.18,1.46-0.16,2.9,0.04,4.25
				c-0.7-2.01-1.12-4.25-1.17-6.56c-0.37-0.82-0.71-1.66-1.02-2.52c-0.44,2.09-0.45,4.17-0.08,6.05c-0.83-2.05-1.34-4.39-1.4-6.81
				c-0.04-1.25,0.05-2.43,0.25-3.54c-0.3-1.35-0.51-2.76-0.65-4.22c-0.48,1.32-0.76,2.66-0.85,3.95c-0.27-2.2-0.15-4.59,0.42-6.95
				c0.08-0.33,0.16-0.65,0.26-0.97v-0.09c0.03-1.94,0.2-3.84,0.53-5.7c-1.31,1.72-2.28,3.6-2.86,5.48c0.31-2.66,1.12-5.45,2.46-8.07
				c0.58-1.14,1.23-2.17,1.93-3.1c0-0.01,0-0.01,0.01-0.01c0.37-1.04,0.8-2.07,1.29-3.07c-0.9,0.89-1.67,1.89-2.3,2.93
				c0.9-2.48,2.29-4.89,4.11-6.95c0.55-0.62,1.12-1.19,1.7-1.71c0.07-0.04,0.13-0.07,0.2-0.1V27.4c0.05-0.06,0.1-0.11,0.13-0.17
				c-0.11,0.09-0.22,0.19-0.33,0.28c-2.08,1.08-3.72,2.52-4.81,4.14c1.26-2.52,3.38-4.92,6.17-6.76c-0.42-0.96-0.87-2.01-1.25-3.11
				c-0.5-1.38-0.54-2.93-0.41-4.55c2.32,1.61,4.89,2.06,7.48,2.44c0.01,0,0.04,0.01,0.05,0.01c1.4,0.12,2.8,0.14,4.21,0.15
				c4.07,0.03,8.13,0,12.19,0.11c2.53,0.07,5.02,0.48,7.4,1.26c0.62,0.2,1.22,0.5,1.76,0.84C66.6,22.85,67,23.78,66.65,25.17z"/>
			<path fill="#D1D1D1" d="M39.61,51.78c-0.01,0.01-0.01,0.01-0.01,0.02c-0.01,0-0.01,0-0.01,0C39.59,51.79,39.6,51.79,39.61,51.78z
				"/>
		</g>
	</g>
	<g>
		<g>
			<g>
				<path fill="#FFFFFF" d="M79.55,47.5c-3.52,0.37-7.28,0.13-11.1-0.72c0.81-0.52,1.55-1.16,2.22-1.89
					c0.13-0.14,0.26-0.29,0.39-0.45l0.59,0.19c2.04,0.65,4.12,1.31,6.06,2.08c0.01,0.01,0.01,0.01,0.02,0.01
					C78.36,46.97,78.96,47.23,79.55,47.5z"/>
			</g>
		</g>
	</g>
	<g>
		<path fill="#FFFFFF" d="M82.52,32.84c-3.07-3.34-7.51-5.53-13.14-6.51c-0.76-0.14-1.54-0.25-2.34-0.34
			c1.26,0.59,2.4,1.41,3.39,2.43c0.7,0.72,1.31,1.5,1.8,2.36c0.9,1.56,1.44,3.31,1.58,5.12c0.02,0.29,0.03,0.59,0.03,0.88
			c0,1.11-0.16,2.21-0.46,3.27c0,0.01-0.01,0.02-0.01,0.03c-0.07,0.22-0.13,0.45-0.22,0.67c-0.07,0.21-0.15,0.43-0.24,0.64
			c-0.03,0.07-0.05,0.14-0.09,0.21c-0.01,0.04-0.04,0.08-0.06,0.13c-0.01,0.02-0.02,0.04-0.04,0.07c-0.01,0.02-0.01,0.04-0.02,0.05
			c0,0.02-0.01,0.04-0.01,0.05c-0.08,0.15-0.15,0.31-0.24,0.45c-0.14,0.29-0.31,0.58-0.49,0.84c-0.02,0.04-0.04,0.07-0.07,0.1
			c-0.11,0.18-0.23,0.35-0.36,0.52l0.04,0.01c1.68,0.73,3.39,1.29,5.08,1.69c0.43,0.15,0.86,0.31,1.29,0.49
			c1.03,0.4,2.02,0.84,2.95,1.32c0.22,0.11,0.43,0.23,0.64,0.35c0.04,0.01,0.12,0.06,0.19,0.11c1.94,1.06,3.34,2.24,4.28,3.58
			c0.24,0.34,0.45,0.7,0.63,1.08c0.04,0.06,0.07,0.13,0.09,0.2c0.03,0.06,0.05,0.12,0.08,0.18c0.03-0.15,0.06-0.31,0.08-0.46
			c0.04-0.24,0.07-0.46,0.09-0.68L87,51.63c0.27-1.71,0.4-3.36,0.4-4.95C87.41,41.1,85.75,36.37,82.52,32.84z M77.2,35.29
			c-0.03,0.05-0.08,0.1-0.14,0.13c-0.16,0.1-0.42,0.19-0.87,0.28c-0.75,0.15-1.38,0.01-1.47-0.33c-0.02-0.08,0.01-0.14,0.04-0.17
			c0.06-0.07,0.15-0.07,0.25-0.07c0.21,0,0.65,0.01,1.26-0.63c0.49-0.52,0.89-0.24,1-0.13C77.35,34.45,77.59,34.74,77.2,35.29z"/>
	</g>
	<g>
		<g>
			<path fill="#FFFFFF" d="M72.75,36.78c0,1.02-0.13,2.02-0.41,2.98c-0.16,0.56-0.37,1.11-0.61,1.65c-0.01,0.04-0.04,0.08-0.06,0.13
				c0,0.01-0.01,0.03-0.02,0.03c-0.01,0.04-0.02,0.07-0.04,0.1c-0.07,0.15-0.15,0.3-0.24,0.44c-0.11,0.21-0.24,0.41-0.37,0.61
				c-0.03,0.05-0.06,0.11-0.1,0.16c0,0.01,0,0.01,0,0.01c-0.01,0.01-0.01,0.02-0.02,0.03c-0.05,0.07-0.1,0.15-0.17,0.22
				c-0.05,0.07-0.1,0.14-0.16,0.21c-0.04,0.06-0.09,0.11-0.13,0.17c-0.03,0.04-0.06,0.07-0.09,0.11c-0.1,0.14-0.22,0.28-0.34,0.41
				c-0.75,0.84-1.62,1.56-2.59,2.11c-0.04,0.03-0.08,0.05-0.13,0.07c-0.66,0.4-1.37,0.7-2.11,0.93c-0.09,0.03-0.17,0.05-0.27,0.07
				c-0.03,0.01-0.07,0.03-0.1,0.04c-0.06,0.02-0.12,0.04-0.18,0.04c-0.19,0.04-0.38,0.09-0.57,0.13c-0.08,0.02-0.16,0.04-0.24,0.04
				c-0.13,0.03-0.27,0.05-0.4,0.07c-0.1,0.01-0.21,0.03-0.31,0.04c-0.4,0.05-0.79,0.07-1.2,0.07c-0.87,0-1.71-0.1-2.53-0.3
				c-0.19-0.04-0.4-0.1-0.58-0.16c-0.22-0.07-0.44-0.14-0.66-0.22c-0.22-0.07-0.43-0.16-0.64-0.27h-0.01
				c-0.1-0.04-0.19-0.09-0.28-0.13c-0.01-0.01-0.04-0.01-0.06-0.03c-0.17-0.08-0.34-0.17-0.52-0.27c-0.05-0.02-0.1-0.05-0.14-0.08
				c-0.2-0.11-0.4-0.24-0.61-0.37c-0.13-0.08-0.26-0.17-0.39-0.26c-0.33-0.23-0.64-0.49-0.93-0.76c-0.89-0.82-1.65-1.79-2.22-2.85
				c-0.04-0.08-0.08-0.16-0.13-0.24c-0.02-0.05-0.05-0.09-0.07-0.14c-0.01-0.01-0.01-0.03-0.01-0.03c-0.01-0.03-0.04-0.05-0.04-0.09
				c-0.26-0.53-0.47-1.08-0.64-1.65c-0.28-0.99-0.43-2-0.43-3.04c0-4.87,3.12-8.94,7.49-10.34c-1.75,1.08-2.95,2.97-3.04,5.17
				c-0.15,3.53,2.59,6.51,6.11,6.67c1.34,0.06,2.6-0.31,3.66-0.96c0.91-0.57,1.67-1.36,2.2-2.31c0.48-0.84,0.76-1.81,0.81-2.84
				c0.01-0.36,0-0.71-0.04-1.05c-0.03-0.28-0.08-0.56-0.16-0.83c-0.08-0.34-0.19-0.67-0.34-0.99c-0.55-1.24-1.49-2.28-2.66-2.95
				c0.07,0.02,0.13,0.04,0.19,0.07c0.01,0,0.02,0.01,0.04,0.01c0.08,0.02,0.16,0.04,0.23,0.07c0.34,0.12,0.67,0.25,1,0.4
				c0.5,0.23,0.98,0.49,1.44,0.79c0.01,0.01,0.03,0.03,0.05,0.04c1.6,1.07,2.89,2.56,3.74,4.32c0,0.01,0,0.01,0,0.01
				c0.25,0.52,0.46,1.06,0.62,1.63c0.1,0.37,0.19,0.73,0.25,1.11c0.01,0,0.01,0.01,0.01,0.01c0.05,0.28,0.09,0.55,0.11,0.84
				c0.02,0.19,0.04,0.37,0.04,0.57c0.01,0.1,0.01,0.19,0.01,0.28C72.75,36.6,72.75,36.69,72.75,36.78z"/>
			<path fill="#FFFFFF" d="M61.95,32.3c-0.01,0.25-0.23,0.45-0.48,0.44c-0.25-0.01-0.45-0.23-0.44-0.48
				c0.01-0.25,0.22-0.45,0.48-0.44C61.77,31.83,61.96,32.05,61.95,32.3z"/>
			<path fill="#FFFFFF" d="M62.04,30.14c-0.02,0.51-0.45,0.9-0.96,0.87c-0.51-0.02-0.9-0.45-0.87-0.96c0.02-0.5,0.45-0.9,0.96-0.87
				C61.67,29.21,62.06,29.63,62.04,30.14z"/>
		</g>
	</g>
	<g>
		<g>
			<g>
				<g>
					<path fill="#FFFFFF" d="M62.04,30.14c-0.02,0.51-0.45,0.9-0.96,0.87c-0.51-0.02-0.9-0.45-0.87-0.96
						c0.02-0.5,0.45-0.9,0.96-0.87C61.67,29.21,62.06,29.63,62.04,30.14z"/>
				</g>
			</g>
		</g>
	</g>
	<g>
		<g>
			<g>
				<g>
					<path fill="#FFFFFF" d="M61.95,32.3c-0.01,0.25-0.23,0.45-0.48,0.44c-0.25-0.01-0.45-0.23-0.44-0.48
						c0.01-0.25,0.22-0.45,0.48-0.44C61.77,31.83,61.96,32.05,61.95,32.3z"/>
				</g>
			</g>
		</g>
	</g>
	<g>
		<g>
			<g>
				<g>
					<path fill="#FFFFFF" d="M50.15,90.55c-0.24,0.35-0.56,0.66-0.95,0.9c-0.4,0.25-0.84,0.4-1.29,0.45
						c-1.17,0.15-2.37-0.37-3.02-1.44c-0.04-0.07-0.09-0.14-0.13-0.22c-0.16-0.31-0.26-0.65-0.3-0.99
						c-1.22-0.25-2.71-0.37-4.37-0.31c-0.04,0-0.08,0-0.13,0.01c-2.89,0.1-5.72,0.7-7.85,1.56c0.77-1.39,2.04-2.77,3.66-3.92
						c0.61-0.43,1.26-0.84,1.95-1.2c0.25-0.13,0.49-0.25,0.76-0.37c0.05-0.03,0.1-0.06,0.16-0.08c0.28-0.12,0.55-0.23,0.82-0.34
						c0.07-0.03,0.16-0.06,0.24-0.09c1.32-0.49,2.62-0.78,3.84-0.88c1.69-0.13,3.22,0.1,4.4,0.67c0.19,0.09,0.37,0.19,0.55,0.3
						c0.01,0.01,0.02,0.01,0.03,0.02c0.41,0.25,0.76,0.58,1.05,0.93c0.24,0.31,0.43,0.65,0.57,1.02c0.08,0.22,0.15,0.46,0.19,0.7
						C50.93,88.32,50.83,89.6,50.15,90.55z"/>
				</g>
			</g>
		</g>
	</g>
</g>
</svg>
